<?xml version="1.0" encoding="UTF-8"?>
<svg version="1.1" viewBox="0 0 1252 1712" width="313" height="428" xmlns="http://www.w3.org/2000/svg">
<path transform="translate(626,336)" d="m0 0 6 1 18 10 18 12 27 13 17 10 15 10 16 9 34 20 16 8 26 15 15 10 26 15 14 8 14 7 22 13 27 16 14 9 21 12 14 6 20 13 26 15 18 11 16 10 11 5 16 8 11 7 8 6 2 7v543l-1 12-5 5-10 7-49 28-17 9-17 10-31 19-26 15-21 11-17 10-29 17-15 10-23 13-12 5-10 6-14 9-22 13-17 10-14 9-25 12-20 12-10 7-21 12-24 14-19 10-14 7h-6l-17-9-5-3-19-10-24-14-17-11-26-15-20-10-11-7-26-15-18-11-14-9-18-10-9-4-16-9-10-7-18-10-25-15-14-9-13-6-19-10-22-14-26-15-24-14-23-12-24-14-22-15-2-3v-558l5-5 12-8 13-8 18-8 25-15 16-10 19-11 17-10 9-6 12-5 39-23 9-6 25-15 23-12 24-14 26-15 13-9 25-14 16-7 13-9 26-15 17-10 10-7 18-10 14-6 17-10 8-6zm-1 101-15 10-14 9-26 15-22 11-16 10-25 14-15 10-17 10-15 8-16 8-14 9-24 14-20 12-14 9-10 5-11 5-19 11-15 10-25 14-20 12-16 8-23 13-3 3v454l1 7 13 8 22 13 10 7 28 14 19 11 15 10 23 13 22 13 19 10 23 13 14 9 21 13 21 12 16 8 24 14 27 16 9 6 22 13 13 5 13 8 17 11 6 3 5-2 17-10 10-6 8-5 12-5 39-23 9-6 13-8 25-14 22-12 36-21 10-7 21-12 26-13 10-7 16-9 17-10 18-11 9-6 12-7 15-6 18-11 10-7 18-10 3-3v-460l-5-4-23-13-22-12-23-13-16-10-13-8-21-12-14-6-10-7-26-15-25-15-9-6-14-8-16-7-16-10-13-8-29-17-14-9-10-6-18-8-27-16-10-7-22-13z" fill="#FDFDFD"/>
<path transform="translate(650,494)" d="m0 0 5 2 18 11 26 15 17 10 19 10 18 10 18 11 10 7 28 16 28 15 17 10 26 15 10 7 21 12 13 6 11 6 15 10 18 10 20 12 2 2 1 7v392l-1 13-5 4-26 15-18 11-14 9-28 16-13 6-11 7-26 15-17 10-10 7-21 12-13 5-17 11-13 8-24 14-15 9-14 9-11 5-14 7-18 11-9 6-3-1zm112 195v417l5-1 26-15 22-13 14-9 13-8 18-10 16-7 2-2v-285l-9-6-26-15-21-13-20-12-16-8-11-6-12-7z" fill="#FDFDFD"/>
<path transform="translate(609,494)" d="m0 0h2v446l-1 1h-250l1 5v108l6 2 26 17 23 13 22 13 19 10 25 14 12 8 13 8 17 10v-115l1-1h85l1 1v266l-5-2-13-8-22-12-16-8-15-10-18-10-25-15-10-7-12-7-18-8-15-9-14-9-26-15-17-10-11-7-14-6-17-10-32-20-25-14-14-9v-250h252v-207l-10 4-17 10-10 7-19 11-27 16-11 7-14 6-24 14-11 7-16 10-4 1v22l-2 1h-79l-7-1-1-1v-70l3-3 26-15 24-14 10-7 18-8 22-13 9-6 13-8 24-14 42-23 24-14 9-6 16-10 21-12 12-5 14-9 26-15 20-12z" fill="#FDFDFD"/>
<path transform="translate(971,10)" d="m0 0 13 1 12 4 10 6 14 6 27 16 17 11 23 13 27 16 22 12 20 12 18 11 27 15 14 8 8 9 7 14 1 4v18l-4 10-12 25-12 22-10 16-17 29-10 17-6 12-16 27-10 17-10 16-15 27-9 17-10 17-8 14-15 24-12 18-7 9-10 6-7 2h-17l-14-5-25-15-19-11-19-10-24-14-26-15-12-8-14-8-20-10-20-12-21-12-18-11-9-8-7-12-2-5-1-6v-11l3-12 11-23 12-21 24-40 15-26 8-15 10-17 14-24 16-27 10-18 12-22 14-23 9-15 13-22 7-10 5-5 8-5 7-2zm20 68-5 2-9 14-13 22-14 24-9 16-10 19-6 11-15 24-15 26-11 19-12 22-9 15-13 22-1 6 4 8 9 6 9 4 7-1 5-5 10-19 7-10 6-11 14-25 7-11 10-16 11-23 13-21 12-19 13-24 11-18 10-19 8-15 1-3v-8l-3-5-8-5-7-2zm69 40-5 4-11 21-10 17-7 11-7 14-12 18-9 16-11 21-15 25-14 24-9 15-7 10-7 16-8 14-6 12-1 8 4 5 15 9 5 1 7-5 7-11 6-8 28-49 10-19 12-22 8-13 11-17 12-21 15-28 11-19 10-17 6-11v-6l-5-6-11-6-7-3zm71 41-5 5-8 13-13 23-9 17-16 27-9 14-11 19-7 12-9 19-11 18-8 13-10 17-9 13-8 14-6 18 1 6 4 6 8 6 6 2h6l6-4 10-16 14-25 13-23 10-18 24-40 10-17 9-19 12-19 8-14 18-30 6-9 3-7-1-9-9-6-12-6z" fill="#9560A4"/>
<path transform="translate(277,10)" d="m0 0h15l11 3 9 5 9 9 6 10 16 30 11 19 17 28 15 27 10 17 13 22 12 21 10 17 12 23 13 21 15 25 11 18 8 14 4 14 1 6v9l-2 12-7 11-8 7-18 10-18 11-15 10-18 10-14 6-10 6-14 9-46 27-14 8-16 8-14 8-12 8-14 8-10 3-9 1-15-2-10-6-9-9-17-26-15-26-12-23-15-26-13-23-12-19-11-19-10-20-10-15-15-26-21-35-8-16-14-26-4-10v-13l4-13 7-11 8-7 29-16 22-13 20-12 22-13 24-13 13-8 20-12 24-15 16-9 32-16zm-4 90-8 4-6 5-3 5v9l8 16 10 19 13 23 14 22 12 21 13 24 14 24 16 28 11 17 12 21 9 20 5 4h9l12-6 6-5 2-4v-7l-4-9-8-14-10-15-15-27-8-16-10-16-9-14-14-25-10-16-12-24-14-24-12-19-8-14-5-6-2-1zm-68 40-10 4-8 6-3 5v9l7 14 10 16 8 13 10 21 8 14 10 15 8 14 14 24 13 24 16 28 11 18 12 20 9 14 4 4 7-1 14-8 6-7-1-9-6-11-10-15-13-27-12-20-11-17-17-29-20-36-12-21-12-19-20-36-4-6-2-1zm-73 43-8 4-13 9 1 6 9 19 12 20 10 15 14 26 12 23 7 11 9 16 12 21 11 17 8 16 9 16 12 20 9 14 4 5 3 2 9-1 8-4 8-8 1-2v-6l-14-29-12-21-14-21-14-25-14-26-14-24-10-17-13-21-12-23-7-14-7-10-5-6-4-2z" fill="#955FA4"/>
<path transform="translate(323,1335)" d="m0 0 12 1 11 4 28 17 11 7 11 9 6 8 2 4 1 13-3 10-10 18-9 15-12 22-8 13-13 23-10 16-6 11-12 23-12 20-17 29-10 17-8 13-14 28-9 14-7 7-11 6-11 2-13-4-15-7-19-9-15-10-7-7-6-12-1-5v-10l4-10 14-27 7-14 13-21 14-24 15-25 13-24 15-25 16-27 9-16 15-28 15-25 8-11 5-5 8-3zm-102 248-6 4-6 7-12 19-4 9v10l5 8 7 3h9l6-5 10-15 7-11 3-9v-9l-4-7-7-4z" fill="#955FA4"/>
<path transform="translate(930,1335)" d="m0 0 13 2 6 4 8 9 13 21 17 29 8 14 10 19 15 24 28 49 12 22 11 19 14 22 11 18 9 17 6 17v13l-8 16-12 9-29 15-16 8-10 3-11-1-12-6-8-8-8-16-12-23-14-22-12-22-14-24-16-29-10-17-13-21-16-29-11-20-10-17-12-21-4-10v-10l7-14 9-8 17-11 13-8 18-10zm100 248-8 4-4 5-1 3v7l4 10 10 16 8 10 5 4 7 1 8-4 4-4 1-3v-9l-13-28-5-7-7-4z" fill="#955FA4"/>
</svg>
