<?xml version="1.0" encoding="UTF-8"?>
<svg version="1.1" viewBox="0 0 2048 718" width="396" height="139" xmlns="http://www.w3.org/2000/svg">
<path transform="translate(57,16)" d="m0 0 2 3 147 1 25 1 26 3 25 5 24 8 20 9 18 11 13 10 7 7 5 4 7 8 9 11 8 13 8 16 6 15 6 22 2 14 1 16v21l-3 25-5 21-8 21-10 19-10 14-11 12-5 5-11 10-14 10-23 12-24 9-28 7-21 3-12 1-26 1h-173l-1-1-1-16v-310l-1-17-1-3 11-10 9-7zm107 99-9 1-1 1v172h58l17-2 18-6 14-8 10-8 8-10 8-17 5-19 1-8v-17l-2-14-5-16-8-15-8-10-9-8-17-9-17-5-17-2z" fill="#fff"/>
<path transform="translate(462,20)" d="m0 0h158l35 1 26 3 25 6 16 6 16 8 13 8 11 9 11 11 10 14 9 17 6 17 3 15 1 9v26l-3 21-7 21-9 17-10 13-9 10-16 12-12 6h-2l5 9 16 24 14 20 34 51 5 7v3h-128l-6-7-26-39-29-43-4-2-31-1v90l-5 2h-117l-1-1v-362zm131 94-9 1v85l31 1 26-1 12-3 12-6 7-7 5-10 2-15-1-13-4-11-6-8-7-6-10-4-10-2-10-1z" fill="#fff"/>
<path transform="translate(880,20)" d="m0 0h87l1 1 1 207 3 21 4 13 5 10 9 10 9 6 12 4 6 1h12l16-3 13-7 7-7 6-10 4-11 4-20 1-210 1-4 33-1h73l13 1 1 118v86l-2 25-3 18-5 19-8 20-8 15-9 13-12 13-13 11-13 8-15 8-19 7-19 5-23 4-11 1h-37l-23-3-19-4-16-5-21-9-15-9-11-9-12-11-9-11-10-15-9-19-6-18-5-25-2-24v-209z" fill="#fff"/>
<path transform="translate(1441,12)" d="m0 0h14l29 2 20 3 19 5 22 8 16 8 14 8 15 11 14 12 8 8 2 3-1 4-11 10-11 9-12 12-14 11-13 12-8 7-6 5-4-1-8-9-17-13-12-7-18-6-11-2h-28l-17 4-12 5-12 7-10 9-8 11-8 16-5 19-1 8v22l4 20 6 16 8 13 9 10 13 9 15 7 15 4 8 1h15l16-2 20-6 2-6 1-86 4-1 102 1-1 153-5 4-16 9-21 10-25 9-23 6-20 4-22 3-11 1h-32l-24-3-27-6-18-6-18-8-15-9-13-9-14-12-6-5-7-8-12-15-9-15-8-16-7-19-6-25-2-16v-33l3-24 4-17 9-24 10-19 9-13 11-13 12-13 20-16 15-9 21-10 19-7 27-6 14-2z" fill="#fff"/>
<path transform="translate(1787,20)" d="m0 0h91l20 1 6 12 13 30 15 35 20 46 16 36 34 78 15 34 13 30 11 25 7 14v23h-118l-11-28-9-24-4-10-6-1h-133l-15 40-8 20-3 3h-83l-39-1 2-6 18-41 22-50 13-30 15-35 11-24 9-21 11-25 13-30 17-39 16-37 10-22 2-2zm49 122-9 21-12 31-13 34-1 4h71l-3-9-15-40-16-41z" fill="#fff"/>
<path transform="translate(440,446)" d="m0 0h24l1 194 1 3 4-5 9-16 9-15 17-29 32-54 13-23 12-19 6-4 4-1 5 3 6 9 17 29 10 17 14 24 15 26 14 24 9 15 11 18 3 3v-198l1-1h24v249l-1 1-18 1-3-1-13-21-16-28-14-24-15-26-14-24-15-26-21-35-4 5-28 48-16 27-12 21-13 22-12 20-17 29-7 11-1 1-21 1-1-1v-237z" fill="#fff"/>
<path transform="translate(1027,446)" d="m0 0h25v203l7-6 11-14 13-16 44-56 13-16 11-14 8-10 11-14 13-16 10-13 14-18 9-10h21v250l-25 1-1-1v-201l-4 2-10 14-12 14-9 12-10 12-10 13-12 15-9 12-13 16-11 14-13 16-14 17-9 12-20 25-6 7-2 1-20-1-1-18z" fill="#fff"/>
<path transform="translate(32,446)" d="m0 0h110l21 2 18 4 16 6 17 9 12 9 13 12 11 14 8 15 6 16 4 17 1 9v24l-3 20-5 17-8 17-10 14-9 10-9 8-17 11-15 7-15 5-21 4-63 1h-63v-250zm28 22-3 1v188l1 19h49l42-1 14-2 16-5 16-7 14-10 10-9 9-12 8-16 5-16 2-11v-27l-2-14-5-17-8-15-10-13-11-10-14-9-15-7-18-5-20-2z" fill="#fff"/>
<path transform="translate(786,446)" d="m0 0h176v22l-151 1-1 94h131v21h-131v92l40-1h73l33 1 1 1v19l-124 1h-47l-1-1-1-42v-185l1-22z" fill="#fff"/>
<path transform="translate(1800,446)" d="m0 0h27l8 16 13 30 10 21h131l9-1 4-6 15-33 11-26 1-1h18l1 1v20l-8 16-16 35-15 33-18 39-18 40-15 33-13 27-3 6-1 1h-24l-4-4-13-27-16-36-13-28-13-29-18-39-11-24-13-28-12-27zm187 87-120 1 2 6 18 40 32 72 6 15 3 3 6-10 18-40 16-36 15-33 6-15v-3z" fill="#fff"/>
<path transform="translate(1295,446)" d="m0 0h206l1 1v14l-1 7-167 1-2-1 6 10 13 16 10 13 9 11 11 14 12 15 13 17 14 17 10 13 11 14 13 16 11 14 13 16 13 17 6 9 1 3v13l-18 1h-76l-106-1v-18l1-2 52-1 110-1-16-21-13-16-10-13-11-13-10-13-12-15-10-13-32-40-22-28-20-25-8-11-2-5z" fill="#fff"/>
<path transform="translate(1681,444)" d="m0 0h25l17 4 15 8 10 9 7 11 6 14 2 8 1 9v189h-117l-1-20 91-1 1-39v-124l-2-14-5-12-7-9-9-6-8-3-6-1h-20l-16 5-11 7-10 9-6 8-4-2-8-10-2-3v-5l9-10 10-8 14-8 12-4z" fill="#fff"/>
<path transform="translate(331,446)" d="m0 0h25v250l-14 1h-11l-1-1v-249z" fill="#fff"/>
<path transform="translate(1556,446)" d="m0 0h25l1 1v248l-1 1h-26z" fill="#fff"/>
<path transform="translate(26,37)" d="m0 0 2 3v4l-4 1v4l3-3v7l-4 2-4-4 1-7 4-6zm-5 10 1 2z" fill="#fff"/>
</svg>
